<svg width="60" height="60" viewBox="0 0 60 60" fill="none" xmlns="http://www.w3.org/2000/svg">
<g clip-path="url(#clip0_312_11)">
<path d="M12.8504 37.7953C12.8504 41.2441 10.063 44.0315 6.61415 44.0315C3.16533 44.0315 0.37793 41.2441 0.37793 37.7953C0.37793 34.3465 3.16533 31.5591 6.61415 31.5591H12.8504V37.7953ZM15.9685 37.7953C15.9685 34.3465 18.7559 31.5591 22.2047 31.5591C25.6535 31.5591 28.4409 34.3465 28.4409 37.7953V53.3859C28.4409 56.8347 25.6535 59.6221 22.2047 59.6221C18.7559 59.6221 15.9685 56.8347 15.9685 53.3859V37.7953Z" fill="#E01E5A"/>
<path d="M22.2051 12.7559C18.7563 12.7559 15.9688 9.96849 15.9688 6.51967C15.9688 3.07085 18.7563 0.283447 22.2051 0.283447C25.6539 0.283447 28.4413 3.07085 28.4413 6.51967V12.7559H22.2051ZM22.2051 15.9212C25.6539 15.9212 28.4413 18.7086 28.4413 22.1575C28.4413 25.6063 25.6539 28.3937 22.2051 28.3937H6.56728C3.11846 28.3937 0.331055 25.6063 0.331055 22.1575C0.331055 18.7086 3.11846 15.9212 6.56728 15.9212H22.2051Z" fill="#36C5F0"/>
<path d="M47.197 22.1575C47.197 18.7086 49.9844 15.9212 53.4332 15.9212C56.882 15.9212 59.6694 18.7086 59.6694 22.1575C59.6694 25.6063 56.882 28.3937 53.4332 28.3937H47.197V22.1575ZM44.0789 22.1575C44.0789 25.6063 41.2915 28.3937 37.8427 28.3937C34.3938 28.3937 31.6064 25.6063 31.6064 22.1575V6.51967C31.6064 3.07085 34.3938 0.283447 37.8427 0.283447C41.2915 0.283447 44.0789 3.07085 44.0789 6.51967V22.1575Z" fill="#2EB67D"/>
<path d="M37.8427 47.1496C41.2915 47.1496 44.0789 49.937 44.0789 53.3859C44.0789 56.8347 41.2915 59.6221 37.8427 59.6221C34.3938 59.6221 31.6064 56.8347 31.6064 53.3859V47.1496H37.8427ZM37.8427 44.0315C34.3938 44.0315 31.6064 41.2441 31.6064 37.7953C31.6064 34.3465 34.3938 31.5591 37.8427 31.5591H53.4805C56.9293 31.5591 59.7167 34.3465 59.7167 37.7953C59.7167 41.2441 56.9293 44.0315 53.4805 44.0315H37.8427Z" fill="#ECB22E"/>
</g>
<defs>
<clipPath id="clip0_312_11">
<rect width="60" height="60" fill="white"/>
</clipPath>
</defs>
</svg>
