<svg width="60" height="60" viewBox="0 0 60 60" fill="none" xmlns="http://www.w3.org/2000/svg">
<g clip-path="url(#clip0_312_8)">
<path d="M30 60C46.5685 60 60 46.5685 60 30C60 13.4315 46.5685 0 30 0C13.4315 0 0 13.4315 0 30C0 46.5685 13.4315 60 30 60Z" fill="#4A8CFF"/>
<path d="M10.752 20.6075V34.7057C10.7593 36.2348 11.3735 37.6985 12.4595 38.7749C13.5456 39.8514 15.0145 40.4527 16.5437 40.4466H37.094C37.3718 40.448 37.6388 40.3391 37.8365 40.1438C38.0341 39.9486 38.1462 39.6829 38.1482 39.4051V25.3069C38.1408 23.7778 37.5266 22.3142 36.4406 21.2377C35.3546 20.1612 33.8856 19.5599 32.3565 19.566H11.8125C11.6744 19.5645 11.5374 19.5903 11.4093 19.6418C11.2812 19.6934 11.1645 19.7698 11.066 19.8665C10.9674 19.9633 10.889 20.0786 10.8351 20.2057C10.7812 20.3329 10.7529 20.4694 10.752 20.6075ZM39.4564 26.1071L47.9408 19.9089C48.6774 19.298 49.249 19.4517 49.249 20.5567V39.4559C49.249 40.7133 48.5504 40.5609 47.9408 40.1024L39.4564 33.9183V26.1071Z" fill="white"/>
</g>
<defs>
<clipPath id="clip0_312_8">
<rect width="60" height="60" fill="white"/>
</clipPath>
</defs>
</svg>
