<svg width="160" height="160" viewBox="0 0 160 160" fill="none" xmlns="http://www.w3.org/2000/svg">
    <path
        d="M160 80C160 124.183 124.183 160 80 160C35.8172 160 0 124.183 0 80C0 35.8172 35.8172 0 80 0C124.183 0 160 35.8172 160 80ZM16 80C16 115.346 44.6538 144 80 144C115.346 144 144 115.346 144 80C144 44.6538 115.346 16 80 16C44.6538 16 16 44.6538 16 80Z"
        fill="#eeeff3" />
    <path
        d="M80 0C93.688 1.63227e-07 107.147 3.51209 119.09 10.2003C131.032 16.8886 141.059 26.5292 148.211 38.2001C155.363 49.871 159.401 63.1818 159.938 76.8592C160.476 90.5366 157.495 104.123 151.281 116.319C145.066 128.515 135.827 138.913 124.446 146.518C113.064 154.122 99.9225 158.679 86.2767 159.753C72.631 160.827 58.9379 158.382 46.5072 152.651C34.0766 146.921 23.3242 138.097 15.2787 127.023L28.2229 117.618C34.6594 126.477 43.2613 133.537 53.2058 138.121C63.1503 142.706 74.1048 144.662 85.0214 143.803C95.938 142.944 106.452 139.298 115.557 133.214C124.661 127.13 132.053 118.812 137.024 109.055C141.996 99.2985 144.381 88.4293 143.951 77.4874C143.521 66.5454 140.291 55.8968 134.569 46.5601C128.847 37.2234 120.826 29.5108 111.272 24.1603C101.718 18.8097 90.9504 16 80 16L80 0Z"
        fill="#7B6CF0" />
</svg>