<svg width="540" height="598" viewBox="0 0 540 598" fill="none" xmlns="http://www.w3.org/2000/svg">
<path d="M509.033 183.533L356.467 30.967C342.402 16.9018 323.325 9 303.434 9H140.5C99.0786 9 65.5 42.5786 65.5 84V513.5C65.5 554.921 99.0786 588.5 140.5 588.5H456C497.421 588.5 531 554.921 531 513.5V236.566C531 216.675 523.098 197.598 509.033 183.533Z" stroke="#CED0D5" stroke-width="18"/>
<path d="M334.5 10V130.5C334.5 171.921 368.079 205.5 409.5 205.5H530" stroke="#CED0D5" stroke-width="18"/>
<path d="M383 271H55C24.6243 271 0 295.624 0 326V462.5C0 492.876 24.6243 517.5 55 517.5H383C413.376 517.5 438 492.876 438 462.5V326C438 295.624 413.376 271 383 271Z" fill="#E12B4D"/>
<path d="M63.4098 456V330.182H110.592C120.257 330.182 128.367 331.984 134.92 335.588C141.514 339.192 146.49 344.148 149.848 350.455C153.248 356.722 154.947 363.848 154.947 371.835C154.947 379.903 153.248 387.07 149.848 393.337C146.449 399.603 141.432 404.538 134.797 408.142C128.162 411.706 119.991 413.487 110.284 413.487H79.0142V394.75H107.213C112.865 394.75 117.493 393.767 121.097 391.801C124.701 389.835 127.363 387.132 129.083 383.691C130.845 380.251 131.725 376.299 131.725 371.835C131.725 367.37 130.845 363.438 129.083 360.039C127.363 356.64 124.681 353.998 121.036 352.114C117.431 350.189 112.783 349.227 107.09 349.227H86.2021V456H63.4098ZM217.38 456H174.745V330.182H218.241C230.732 330.182 241.463 332.701 250.432 337.738C259.443 342.735 266.364 349.923 271.197 359.302C276.03 368.681 278.446 379.903 278.446 392.968C278.446 406.074 276.01 417.337 271.136 426.757C266.303 436.177 259.32 443.406 250.187 448.444C241.094 453.481 230.159 456 217.38 456ZM197.537 436.279H216.275C225.039 436.279 232.35 434.682 238.207 431.488C244.064 428.252 248.466 423.44 251.415 417.05C254.364 410.62 255.839 402.593 255.839 392.968C255.839 383.343 254.364 375.357 251.415 369.009C248.466 362.619 244.104 357.848 238.33 354.694C232.596 351.5 225.469 349.902 216.95 349.902H197.537V436.279ZM300.102 456V330.182H380.704V349.288H322.894V383.446H375.175V402.552H322.894V456H300.102Z" fill="white"/>
</svg>
